# Blender v2.78 (sub 0) OBJ File: '18.blend'
# www.blender.org
mtllib Potato_01.mtl
o Potato_Circle.021
v 0.834638 3.895109 -3.617176
v -1.874629 4.583444 -2.467108
v -3.007237 4.850203 0.322629
v -1.899721 4.539122 3.117844
v 0.799154 3.832427 4.281138
v 3.508421 3.144092 3.131070
v 4.641030 2.877333 0.341334
v 3.533513 3.188415 -2.453880
v 1.822667 7.730879 -3.041630
v -0.515714 8.324984 -2.049000
v -1.493275 8.555225 0.358834
v -0.537371 8.286730 2.771397
v 1.792040 7.676778 3.775442
v 4.130421 7.082673 2.782813
v 5.107981 6.852433 0.374978
v 4.152078 7.120929 -2.037585
v 2.291797 9.563034 -1.621213
v 0.916373 9.912482 -1.037353
v 0.341377 10.047909 0.378923
v 0.903634 9.889980 1.797980
v 2.273782 9.531212 2.388554
v 3.649206 9.181762 1.804694
v 4.224202 9.046335 0.388419
v 3.661944 9.204264 -1.030638
v 2.361339 9.840858 -0.752873
v 1.579852 10.039410 -0.421136
v 1.253151 10.116356 0.383562
v 1.572614 10.026625 1.189842
v 2.351103 9.822778 1.525393
v 3.132591 9.624228 1.193657
v 3.459291 9.547281 0.388958
v 3.139828 9.637013 -0.417321
v 0.367485 2.088322 -3.170250
v -2.023924 2.695900 -2.155111
v -3.023652 2.931362 0.307327
v -2.046072 2.656778 2.774601
v 0.336164 2.032995 3.801415
v 2.727573 1.425417 2.786275
v 3.727301 1.189955 0.323837
v 2.749721 1.464539 -2.143435
v -0.019842 0.600922 -1.676961
v -1.377594 0.945883 -1.100604
v -1.945202 1.079569 0.297476
v -1.390169 0.923671 1.698302
v -0.037624 0.569509 2.281289
v 1.320128 0.224550 1.704930
v 1.887737 0.090863 0.306850
v 1.332703 0.246762 -1.093975
v -0.129562 0.187863 -0.379801
v -0.594903 0.306091 -0.182267
v -0.789437 0.351909 0.296894
v -0.599212 0.298478 0.776996
v -0.135657 0.177097 0.976802
v 0.329683 0.058869 0.779268
v 0.524219 0.013051 0.300107
v 0.333993 0.066482 -0.179996
v -0.156963 0.088048 0.297644
v 2.407222 10.029590 0.388050
v 3.937635 5.258018 -2.310356
v 1.359835 5.933009 -3.421464
v 3.913669 5.215684 3.024046
v 4.995467 4.960892 0.359461
v -1.251856 6.548130 3.011414
v 1.325943 5.873139 4.122521
v -1.227890 6.590465 -2.322990
v -2.309690 6.845256 0.341596
v 4.298896 6.335523 -1.120482
v 4.537621 6.269987 -0.684797
v 4.519155 5.836072 -0.688324
v 4.254974 5.908596 -1.170467
v 4.571961 6.190793 -1.078326
v 4.686700 6.159294 -0.868921
v 4.677825 5.950739 -0.870616
v 4.550851 5.985598 -1.102351
v 0.006607 4.858453 3.738781
v -0.665641 5.034480 3.449022
v -0.504501 5.534841 3.422713
v 0.137590 5.366710 3.699473
v -0.209564 5.007304 3.733126
v -0.548924 5.096165 3.586852
v -0.467461 5.348780 3.573470
v -0.143325 5.263906 3.713181
v -0.928526 3.579509 -2.706629
v -0.364151 3.436120 -2.946203
v -0.959627 3.186310 -2.641636
v -0.461465 3.059744 -2.853103
v -0.900663 3.441014 -2.919940
v -0.583086 3.360328 -3.054749
v -0.918163 3.219759 -2.883368
v -0.637845 3.148539 -3.002362
v 6.804489 7.258648 1.738588
v 4.797504 5.146751 0.933293
v 4.753121 2.124430 0.947397
v 6.697338 -0.037880 1.772639
v 9.491260 -0.073529 2.925603
v 11.498244 2.038367 3.730898
v 11.542627 5.060688 3.716794
v 9.598411 7.222999 2.891552
v 5.476050 6.796094 5.485838
v 3.743812 4.973307 4.790784
v 3.705505 2.364727 4.802957
v 5.383567 0.498427 5.515228
v 7.795015 0.467659 6.510356
v 9.527251 2.290447 7.205410
v 9.565559 4.899025 7.193237
v 7.887496 6.765326 6.480967
v 5.227581 5.511926 7.456531
v 4.208688 4.439772 7.047703
v 4.186155 2.905419 7.054864
v 5.173183 1.807671 7.473817
v 6.591584 1.789573 8.059147
v 7.610477 2.861727 8.467975
v 7.633010 4.396080 8.460814
v 6.645981 5.493828 8.041860
v 5.409960 4.711146 7.858434
v 4.831046 4.101971 7.626147
v 4.818244 3.230183 7.630215
v 5.379053 2.606465 7.868256
v 6.184958 2.596182 8.200828
v 6.763873 3.205358 8.433115
v 6.776676 4.077146 8.429047
v 6.215867 4.700864 8.191006
v 8.147875 3.592559 2.332096
v 8.949189 5.598111 2.641155
v 10.023226 4.403593 3.097040
v 9.998709 2.733982 3.104832
v 8.889996 1.567315 2.659965
v 5.719561 3.655694 8.218431
v 8.730193 7.081013 4.813324
v 6.061609 7.115063 3.712083
v 10.544797 2.128970 5.615016
v 10.587190 5.015706 5.601544
v 5.959266 0.145866 3.744606
v 8.627849 0.111816 4.845847
v 4.144660 5.097908 2.942914
v 4.102268 2.211172 2.956386
v 8.766972 6.028343 6.077390
v 9.128633 5.716833 6.229928
v 9.368406 5.746262 5.868987
v 8.968180 6.090988 5.700183
v 9.067017 6.100343 6.122970
v 9.240845 5.950620 6.196285
v 9.356087 5.964764 6.022805
v 9.163724 6.130452 5.941672
v 8.122622 0.060976 3.215003
v 7.426700 0.069855 2.927817
v 7.242785 0.115356 3.418861
v 7.907488 0.106875 3.693163
v 7.874377 -0.024327 3.210969
v 7.523066 -0.019844 3.065994
v 7.430259 0.003260 3.313951
v 7.765810 -0.001021 3.452423
v 7.346559 1.587008 2.023037
v 6.272522 2.781526 1.567151
v 6.297040 4.451137 1.559360
v 7.405752 5.617805 2.004226
vn 0.4131 0.0852 -0.9067
vn 0.9230 -0.0580 0.3803
vn -0.3244 0.2589 0.9098
vn -0.8343 0.4021 -0.3772
vn 0.8868 -0.2329 -0.3992
vn 0.4049 0.0708 0.9116
vn -0.8377 0.3962 0.3760
vn -0.3162 0.2733 -0.9085
vn 0.8814 0.3569 -0.3095
vn 0.4434 0.4601 0.7692
vn -0.6002 0.7333 0.3194
vn -0.1622 0.6302 -0.7593
vn 0.4503 0.4722 -0.7578
vn 0.8785 0.3519 0.3230
vn -0.1691 0.6181 0.7677
vn -0.5973 0.7384 -0.3131
vn 0.5425 0.8282 0.1410
vn 0.1051 0.9393 0.3267
vn -0.0736 0.9895 -0.1245
vn 0.5437 0.8302 -0.1230
vn 0.3608 0.8733 0.3273
vn -0.0748 0.9874 0.1395
vn 0.1080 0.9443 -0.3108
vn 0.3637 0.8784 -0.3102
vn 0.3092 -0.3029 -0.9014
vn 0.8142 -0.4448 0.3731
vn -0.4211 -0.1309 0.8975
vn -0.9261 0.0109 -0.3770
vn 0.8176 -0.4389 -0.3728
vn 0.3011 -0.3172 0.8993
vn -0.9295 0.0050 0.3688
vn -0.4563 -0.1007 -0.8841
vn 0.4933 -0.8212 -0.2868
vn 0.1021 -0.7291 0.6768
vn -0.8302 -0.4850 0.2750
vn -0.4390 -0.5771 -0.6887
vn 0.1082 -0.7182 -0.6873
vn 0.4908 -0.8257 0.2782
vn -0.4451 -0.5879 0.6755
vn -0.8277 -0.4805 -0.2901
vn -0.5280 -0.8386 -0.1342
vn 0.0571 -0.9895 -0.1328
vn -0.1162 -0.9487 0.2941
vn -0.5291 -0.8405 0.1161
vn -0.3558 -0.8814 -0.3108
vn -0.1135 -0.9439 -0.3102
vn 0.0560 -0.9915 0.1175
vn -0.3586 -0.8862 0.2935
vn -0.3850 -0.9229 -0.0091
vn 0.0749 0.9972 0.0083
vn -0.1094 -0.9940 -0.0084
vn -0.2478 -0.9595 0.1336
vn -0.2466 -0.9573 -0.1510
vn 0.4167 0.9090 0.0091
vn 0.2450 0.9517 0.1851
vn 0.2466 0.9545 -0.1678
vn -0.3459 0.1776 -0.9213
vn -0.8743 0.3021 0.3800
vn 0.3847 -0.0276 0.9226
vn 0.9130 -0.1520 -0.3787
vn -0.8708 0.3081 -0.3830
vn -0.3948 0.1720 0.9026
vn 0.9095 -0.1581 0.3844
vn 0.3929 -0.0130 -0.9195
vn 0.8921 -0.0466 -0.4495
vn 0.9714 -0.0780 -0.2243
vn 0.9206 0.1184 -0.3722
vn -0.3356 0.2244 0.9149
vn -0.3715 0.1007 0.9230
vn -0.3122 0.1503 0.9380
vn -0.3649 -0.1237 -0.9228
vn -0.3994 -0.0418 -0.9158
vn -0.4239 -0.1881 -0.8860
vn -0.0533 0.9857 0.1597
vn 0.8419 -0.0098 0.5396
vn -0.0822 -0.9822 0.1688
vn -0.9774 0.0134 -0.2111
vn 0.6536 0.7130 0.2538
vn 0.5652 -0.7022 0.4329
vn -0.7212 -0.6858 -0.0979
vn -0.7007 0.7057 -0.1044
vn 0.3340 0.5830 0.7406
vn 0.3169 -0.5856 0.7461
vn -0.7634 -0.5718 0.3003
vn -0.7463 0.5968 0.2948
vn -0.2026 0.8319 0.5166
vn 0.5492 -0.0042 0.8357
vn -0.2268 -0.8208 0.5243
vn -0.9786 0.0153 0.2052
vn -0.0390 0.0052 0.9992
vn -0.3630 -0.3357 0.8692
vn -0.6768 0.0134 0.7360
vn -0.1288 0.2504 0.9595
vn -0.1360 -0.2375 0.9618
vn -0.5870 -0.2318 0.7757
vn -0.5798 0.2561 0.7734
vn -0.3529 0.3543 0.8660
vn -0.5271 -0.0558 0.8480
vn -0.2237 0.0754 0.9718
vn -0.3153 -0.1541 0.9364
vn -0.4354 0.1736 0.8834
vn -0.6708 0.7140 -0.2006
vn -0.6915 -0.6958 -0.1940
vn 0.6117 -0.7124 0.3438
vn 0.6324 0.6974 0.3372
vn -0.9511 0.0125 -0.3087
vn -0.0854 -0.9947 0.0575
vn 0.8920 -0.0110 0.4519
vn -0.0149 0.9976 0.0670
vn 0.5312 0.7474 0.3991
vn 0.6843 0.5700 0.4548
vn 0.4816 0.6737 0.5606
vn -0.0685 -0.9884 0.1354
vn -0.0196 -0.9997 0.0165
vn 0.0000 -0.9957 0.0927
vn 0.4801 0.8671 -0.1326
vn 0.8744 -0.0333 -0.4841
vn 0.3047 -0.9030 -0.3028
vn 0.7654 -0.0378 0.6424
vn 0.2002 0.0936 -0.9753
vn 0.0228 0.0714 0.9972
vn -0.3542 0.1630 0.9208
vn -0.4421 -0.6174 0.6507
vn -0.1804 0.5973 0.7815
vn -0.7904 0.2833 0.5432
vn -0.9855 0.0512 -0.1620
vn -0.4130 -0.1166 -0.9032
vn -0.3143 -0.9316 -0.1828
vn 0.5084 -0.3284 -0.7961
vn -0.0191 0.8374 -0.5462
vn -0.2005 0.2332 0.9515
vn 0.4987 0.7720 0.3942
vn 0.6513 0.4610 -0.6027
vn 0.8028 -0.3123 0.5079
vn -0.2381 0.9706 0.0342
vn 0.3127 -0.9217 0.2293
vn -0.0442 -0.9961 0.0763
vn 0.2574 -0.7186 -0.6460
vn -0.2183 -0.8361 0.5032
vn -0.5635 -0.8149 -0.1354
vn 0.3813 -0.0099 -0.9244
usemtl 795548
s off
f 59//1 60//1 9//1 16//1
f 61//2 62//2 15//2 14//2
f 63//3 64//3 13//3 12//3
f 65//4 66//4 11//4 10//4
f 16//5 15//5 68//5 67//5
f 64//6 61//6 14//6 13//6
f 66//7 63//7 12//7 11//7
f 60//8 65//8 10//8 9//8
f 15//9 16//9 24//9 23//9
f 13//10 14//10 22//10 21//10
f 11//11 12//11 20//11 19//11
f 9//12 10//12 18//12 17//12
f 16//13 9//13 17//13 24//13
f 14//14 15//14 23//14 22//14
f 12//15 13//15 21//15 20//15
f 10//16 11//16 19//16 18//16
f 22//17 23//17 31//17 30//17
f 20//18 21//18 29//18 28//18
f 18//19 19//19 27//19 26//19
f 23//20 24//20 32//20 31//20
f 21//21 22//21 30//21 29//21
f 19//22 20//22 28//22 27//22
f 17//23 18//23 26//23 25//23
f 24//24 17//24 25//24 32//24
f 1//25 8//25 40//25 33//25
f 7//26 6//26 38//26 39//26
f 5//27 4//27 36//27 37//27
f 3//28 2//28 34//28 35//28
f 8//29 7//29 39//29 40//29
f 6//30 5//30 37//30 38//30
f 4//31 3//31 35//31 36//31
f 1//32 33//32 86//32 84//32
f 40//33 39//33 47//33 48//33
f 38//34 37//34 45//34 46//34
f 36//35 35//35 43//35 44//35
f 34//36 33//36 41//36 42//36
f 33//37 40//37 48//37 41//37
f 39//38 38//38 46//38 47//38
f 37//39 36//39 44//39 45//39
f 35//40 34//40 42//40 43//40
f 43//41 42//41 50//41 51//41
f 48//42 47//42 55//42 56//42
f 46//43 45//43 53//43 54//43
f 44//44 43//44 51//44 52//44
f 42//45 41//45 49//45 50//45
f 41//46 48//46 56//46 49//46
f 47//47 46//47 54//47 55//47
f 45//48 44//48 52//48 53//48
f 50//49 57//49 52//49 51//49
f 26//50 27//50 28//50 58//50
f 54//51 57//51 56//51 55//51
f 52//52 57//52 54//52 53//52
f 56//53 57//53 50//53 49//53
f 30//54 31//54 32//54 58//54
f 58//55 28//55 29//55 30//55
f 58//56 32//56 25//56 26//56
f 1//57 2//57 65//57 60//57
f 3//58 4//58 63//58 66//58
f 5//59 6//59 61//59 64//59
f 7//60 8//60 59//60 62//60
f 2//61 3//61 66//61 65//61
f 5//62 64//62 78//62 75//62
f 6//63 7//63 62//63 61//63
f 8//64 1//64 60//64 59//64
f 15//65 62//65 69//65 68//65
f 59//66 16//66 67//66 70//66
f 62//67 59//67 70//67 69//67
f 4//68 5//68 75//68 76//68
f 64//69 63//69 77//69 78//69
f 63//70 4//70 76//70 77//70
f 34//71 2//71 83//71 85//71
f 33//72 34//72 85//72 86//72
f 2//73 1//73 84//73 83//73
f 129//74 130//74 99//74 106//74
f 131//75 132//75 105//75 104//75
f 133//76 134//76 103//76 102//76
f 135//77 136//77 101//77 100//77
f 106//78 105//78 138//78 137//78
f 134//79 131//79 104//79 103//79
f 136//80 133//80 102//80 101//80
f 130//81 135//81 100//81 99//81
f 105//82 106//82 114//82 113//82
f 103//83 104//83 112//83 111//83
f 101//84 102//84 110//84 109//84
f 99//85 100//85 108//85 107//85
f 106//86 99//86 107//86 114//86
f 104//87 105//87 113//87 112//87
f 102//88 103//88 111//88 110//88
f 100//89 101//89 109//89 108//89
f 112//90 113//90 121//90 120//90
f 110//91 111//91 119//91 118//91
f 108//92 109//92 117//92 116//92
f 113//93 114//93 122//93 121//93
f 111//94 112//94 120//94 119//94
f 109//95 110//95 118//95 117//95
f 107//96 108//96 116//96 115//96
f 114//97 107//97 115//97 122//97
f 116//98 117//98 118//98 128//98
f 120//99 121//99 122//99 128//99
f 128//100 118//100 119//100 120//100
f 128//101 122//101 115//101 116//101
f 91//102 92//102 135//102 130//102
f 93//103 94//103 133//103 136//103
f 95//104 96//104 131//104 134//104
f 97//105 98//105 129//105 132//105
f 92//106 93//106 136//106 135//106
f 95//107 134//107 148//107 145//107
f 96//108 97//108 132//108 131//108
f 98//109 91//109 130//109 129//109
f 105//110 132//110 139//110 138//110
f 129//111 106//111 137//111 140//111
f 132//112 129//112 140//112 139//112
f 94//113 95//113 145//113 146//113
f 134//114 133//114 147//114 148//114
f 133//115 94//115 146//115 147//115
usemtl DD9944
f 67//116 68//116 72//116 71//116
f 73//117 74//117 71//117 72//117
f 69//118 70//118 74//118 73//118
f 68//119 69//119 73//119 72//119
f 70//120 67//120 71//120 74//120
f 75//121 78//121 82//121 79//121
f 80//122 79//122 82//122 81//122
f 76//123 75//123 79//123 80//123
f 78//124 77//124 81//124 82//124
f 77//125 76//125 80//125 81//125
f 85//126 83//126 87//126 89//126
f 87//127 88//127 90//127 89//127
f 86//128 85//128 89//128 90//128
f 84//129 86//129 90//129 88//129
f 83//130 84//130 88//130 87//130
f 137//131 138//131 142//131 141//131
f 143//132 144//132 141//132 142//132
f 139//133 140//133 144//133 143//133
f 138//134 139//134 143//134 142//134
f 140//135 137//135 141//135 144//135
f 145//136 148//136 152//136 149//136
f 150//137 149//137 152//137 151//137
f 146//138 145//138 149//138 150//138
f 148//139 147//139 151//139 152//139
f 147//140 146//140 150//140 151//140
usemtl FFCC88
f 127//141 153//141 123//141
f 153//141 154//141 123//141
f 124//141 125//141 123//141
f 154//141 155//141 123//141
f 126//141 127//141 123//141
f 125//141 126//141 123//141
f 156//141 124//141 123//141
f 155//141 156//141 123//141
f 92//141 91//141 156//141 155//141
f 94//141 93//141 154//141 153//141
f 96//141 95//141 127//141 126//141
f 98//141 97//141 125//141 124//141
f 93//141 92//141 155//141 154//141
f 95//141 94//141 153//141 127//141
f 97//141 96//141 126//141 125//141
f 91//141 98//141 124//141 156//141
